<?xml version="1.0" encoding="UTF-8" standalone="no"?>
<!DOCTYPE svg PUBLIC "-//W3C//DTD SVG 1.1//EN" "http://www.w3.org/Graphics/SVG/1.1/DTD/svg11.dtd">
<svg width="100%" height="100%" viewBox="0 0 800 800" version="1.1" xmlns="http://www.w3.org/2000/svg" xmlns:xlink="http://www.w3.org/1999/xlink" xml:space="preserve" xmlns:serif="http://www.serif.com/" style="fill-rule:evenodd;clip-rule:evenodd;stroke-linejoin:round;stroke-miterlimit:2;">
    <g transform="matrix(35.1542,0,0,35.1542,-21.85,-21.85)">
        <path d="M19,9L19,15C19,18.866 15.866,22 12,22C8.134,22 5,18.866 5,15L5,9C5,5.134 8.134,2 12,2C15.866,2 19,5.134 19,9ZM12,4.25C12.414,4.25 12.75,4.586 12.75,5L12.75,8C12.75,8.414 12.414,8.75 12,8.75C11.586,8.75 11.25,8.414 11.25,8L11.25,5C11.25,4.586 11.586,4.25 12,4.25Z" style="fill:#fff;"/>
    </g>
</svg>
